<svg xmlns="http://www.w3.org/2000/svg" width="533" height="191" viewBox="0 0 533 191"><g fill="#F5F5F5"><path d="M56.014 70.617l15.6-50.3h10.6l15.6 50.3 17.6-50.3h12.7l-24.4 69.9h-11.7l-14.7-47.9h-.8l-14.7 47.9h-11.7l-24.4-69.9h12.7l17.6 50.3zm110.5 19.6h-12v-27.6l-26-42.3h12.9l19.1 31.8 19.1-31.8h12.9l-26 42.3v27.6zm87.298-69.9h11.8v69.9h-12.8l-39.6-51v51h-11.8v-69.9h11.8l40.6 52.2v-52.2zm84.1 9.15c6.733 6.1 10.1 14.584 10.1 25.45 0 10.867-3.268 19.467-9.8 25.8-6.534 6.334-16.534 9.5-30 9.5h-23.2v-69.9h24c12.533 0 22.166 3.05 28.9 9.15zm-1.8 25.75c0-16-9.167-24-27.5-24h-11.8v47.9h13.1c8.465 0 14.95-2.016 19.45-6.05 4.5-4.033 6.75-9.983 6.75-17.85z"/><path d="M220.49 129.523c-4.8 0-8.84-1.1-12.12-3.3-3.28-2.2-4.92-4.98-4.92-8.34 0-4.24 2.76-8.48 8.28-12.72.96-.72 1.68-1.08 2.16-1.08s.72.16.72.48c0 .8-.64 1.44-1.92 1.92-4.48 3.6-6.72 7.24-6.72 10.92 0 2.64 1.2 4.86 3.6 6.66 2.4 1.8 5.4 2.7 9 2.7 7.84 0 15.24-3.76 22.2-11.28 3.6-3.92 5.4-8.44 5.4-13.56 0-5.12-1.92-8.92-5.76-11.4-3.2-2.24-7.52-3.36-12.96-3.36-7.84 0-15.72 1.96-23.64 5.88-9.762 4.72-18.582 12.06-26.46 22.02-7.88 9.96-11.82 19.54-11.82 28.74 0 7.28 2.48 12.9 7.44 16.86 4.96 3.96 11.12 5.94 18.48 5.94 8.4 0 16.64-2.04 24.72-6.12 6.16-3.2 11.48-7.28 15.96-12.24 1.28-1.44 2.28-2.16 3-2.16.48 0 .72.42.72 1.26s-.44 1.7-1.32 2.58c-4.24 4.48-10.36 8.8-18.36 12.96-9.84 5.2-19.74 7.8-29.7 7.8s-17.38-3.28-22.26-9.84c-3.28-4.32-4.92-9.48-4.92-15.48 0-2.64.318-5.48.96-8.52 2.16-10.24 7.84-20.2 17.04-29.88 6.64-6.96 14.52-12.38 23.64-16.26 9.12-3.88 17.76-5.82 25.92-5.82 4.32 0 8.08.52 11.28 1.56 8.72 2.72 13.08 8.2 13.08 16.44 0 5.04-1.48 9.4-4.44 13.08-7.36 9.04-16.122 13.56-26.28 13.56zm46.68 33.96c-6 0-9-3.32-9-9.96 0-3.36.878-7.04 2.64-11.04 1.758-4 3.678-7.36 5.76-10.08-.402.08-.92.12-1.56.12-1.92 0-3.522-1.36-4.8-4.08l-8.88 11.52c-4.962 6.16-7.842 9.24-8.64 9.24-.4 0-.6-.16-.6-.48 0-.8.678-1.96 2.04-3.48 6.96-8.08 11.88-14.92 14.76-20.52 1.838-6.96 4.158-10.44 6.96-10.44 1.838 0 2.76.8 2.76 2.4 0 1.602-1.002 3.642-3 6.12l-2.88 3.84c0 1.68 1.238 2.52 3.72 2.52 1.44 0 3.04-.52 4.8-1.56l3.12-1.92c.158-.08.558-.12 1.2-.12.64 0 1.32.4 2.04 1.2.72.8.96 1.52.72 2.16l-8.28 10.44c-5.122 6.56-7.68 11.74-7.68 15.54 0 3.8 1.758 5.7 5.28 5.7 3.678 0 8.198-1.96 13.56-5.88a58.248 58.248 0 0 0 8.76-7.8c2.478-2.88 3.84-4.32 4.08-4.32.558 0 .84.3.84.9s-.36 1.3-1.08 2.1l-3.84 4.32c-2.16 2.24-4.56 4.4-7.2 6.48-6.32 4.722-11.52 7.08-15.6 7.08z"/><path d="M296.09 164.443c-.882 0-1.68-.12-2.4-.36-5.12-1.44-7.68-4.32-7.68-8.64 0-5.6 3.52-12.08 10.56-19.44 7.038-7.36 13.358-11.04 18.96-11.04 1.838 0 3.338.5 4.5 1.5 1.158 1 1.74 2.22 1.74 3.66 0 4.48-3.38 8.76-10.14 12.84-6.762 4.08-12.262 6.12-16.5 6.12-.643 0-1.2-.08-1.68-.24-1.2 2.16-1.8 4.44-1.8 6.84 0 4.16 1.98 6.24 5.94 6.24s9.098-2.68 15.42-8.04c4.878-3.92 9.04-8.08 12.48-12.48.72-.96 1.338-1.44 1.86-1.44.52 0 .78.24.78.72s-.322 1.16-.96 2.04c-4.32 5.682-9.522 10.72-15.6 15.12-6.08 4.4-11.24 6.6-15.48 6.6zm22.68-34.56c0-.96-1.02-1.44-3.06-1.44s-4.942 1.56-8.7 4.68c-5.04 4.16-8.96 8.52-11.76 13.08.48.162 1 .24 1.56.24 3.04 0 7.098-1.62 12.18-4.86 5.08-3.24 8.258-6.78 9.54-10.62.158-.4.24-.76.24-1.08z"/><path d="M360.768 127.003l1.68-.36c.88 0 1.72.36 2.52 1.08.8.72 1.2 1.28 1.2 1.68 0 .4-2.48 4.26-7.44 11.58-4.96 7.32-7.44 12.42-7.44 15.3 0 .24.04.48.12.72.4 1.84 1.28 2.76 2.64 2.76 4.16 0 11.76-6.88 22.8-20.64.24-.32.52-.48.84-.48.32 0 .48.3.48.9 0 .6-.36 1.38-1.08 2.34-10.24 13.68-18.04 20.52-23.4 20.52-.72 0-1.4-.12-2.04-.36-3.52-1.36-5.28-4-5.28-7.92 0-1.36.16-2.72.48-4.08l-7.44 7.2c-4.72 4.16-8.14 6.24-10.26 6.24-2.12 0-4.14-.68-6.06-2.04-2.16-1.6-3.24-3.72-3.24-6.36 0-5.84 4.08-12.82 12.24-20.94 8.16-8.12 15.64-12.18 22.44-12.18 2.64 0 4.398.92 5.28 2.76.24.642.44 1.182.6 1.62.16.44.28.66.36.66zm-35.88 29.52c0 2.88 1 4.32 3 4.32 4.64 0 10.96-5.08 18.96-15.24l12.72-17.52c-.64-1.12-1.68-1.68-3.12-1.68-4.88 0-11.36 3.78-19.44 11.34-8.08 7.56-12.12 13.82-12.12 18.78z"/><path d="M401.566 124.243l17.28-.24c.24.16.36.28.36.36 0 .72-4.98 1.72-14.94 3-9.96 1.28-15.34 2.04-16.14 2.28-1.52 1.36-4.32 5.42-8.4 12.18s-6.12 11.7-6.12 14.82c0 2.96 2.04 4.44 6.12 4.44 1.92 0 4.44-.6 7.56-1.8 3.12-1.2 5.52-2.32 7.2-3.36 4.48-2.8 9.28-6.92 14.4-12.36 1.12-1.12 1.878-1.68 2.28-1.68.24 0 .36.24.36.72s-.6 1.44-1.8 2.88c-4.16 5.12-8.84 9.24-14.04 12.36-6.24 3.84-12.2 5.76-17.88 5.76-2.48 0-4.5-.54-6.06-1.62s-2.34-3.26-2.34-6.54c0-3.28 1.44-7.78 4.32-13.5 2.88-5.72 5.08-9.98 6.6-12.78-1.12.24-2.082.36-2.88.36-2.32 0-3.48-.92-3.48-2.76 0-1.36.96-2.32 2.88-2.88.24 0 .6-.04 1.08-.12h6.96c1.44-1.84 3.08-3.96 4.92-6.36 2.24-2.88 3.76-4.32 4.56-4.32.8 0 1.8.32 3 .96 1.2.64 1.8 1.4 1.8 2.28 0 .88-1.92 3.48-5.76 7.8 2.08.08 4.8.12 8.16.12z"/><path d="M410.206 164.203c-4.08 0-6.12-2.64-6.12-7.92 0-4.32 2.358-10.3 7.08-17.94 4.72-7.64 8.52-11.5 11.4-11.58.798 0 1.7.32 2.7.96 1 .642 1.5 1.28 1.5 1.92-.4.56-.88 1.182-1.44 1.86-.56.68-1.16 1.42-1.8 2.22-.642.8-1.52 1.94-2.64 3.42s-2.2 2.9-3.24 4.26c-6 7.76-9 13.1-9 16.02s1 4.38 3 4.38c1.68 0 3.96-.918 6.84-2.76 6.72-4.16 12.04-8.72 15.96-13.68 1.44-1.84 2.418-2.76 2.94-2.76.52 0 .78.32.78.96 0 .64-.922 1.92-2.762 3.84-1.84 1.92-3.3 3.44-4.38 4.56-1.08 1.12-1.82 1.86-2.22 2.22-.4.36-1.14 1.04-2.22 2.04-1.08 1-1.9 1.7-2.46 2.1-.56.4-1.36 1-2.4 1.8-1.04.8-1.96 1.38-2.76 1.74-.8.36-1.72.78-2.76 1.26-1.678.72-3.68 1.08-5.998 1.08zm25.14-49.14c1.08.76 1.62 1.66 1.62 2.7 0 1.04-.5 1.94-1.5 2.7-1 .76-2.1 1.14-3.3 1.14-1.2 0-2.3-.44-3.3-1.32-1-.88-1.5-1.878-1.5-3 0-2.24 1.52-3.36 4.56-3.36 1.2 0 2.34.38 3.42 1.14z"/><path d="M465.646 115.723c2.4 0 4.44.8 6.12 2.4 1.68 1.6 2.52 3.84 2.52 6.72 0 6.32-5.24 14.24-15.72 23.76-8.88 8-16.04 12.88-21.48 14.64-.88 0-2.04-.48-3.48-1.44-1.438-.96-2.16-1.84-2.16-2.64 0-1.758 1.92-7.72 5.76-17.88s6.48-15.84 7.92-17.04c.32-.32.84-.48 1.56-.48.722 0 1.48.38 2.28 1.14.8.76 1.24 1.66 1.32 2.7 0 .08-1.98 4.72-5.94 13.92-3.96 9.2-5.82 14.68-5.58 16.44 3.44-1.04 9.58-5.24 18.42-12.6 8.84-7.36 13.262-13.96 13.262-19.8 0-3.52-1.76-6.08-5.28-7.68-.56-.24-.84-.6-.84-1.08 0-.72.437-1.08 1.318-1.08zm9.6 48.72c-.882 0-1.68-.12-2.4-.36-5.118-1.44-7.68-4.32-7.68-8.64 0-5.6 3.52-12.08 10.56-19.44 7.04-7.36 13.36-11.04 18.96-11.04 1.84 0 3.34.5 4.5 1.5 1.16 1 1.74 2.22 1.74 3.66 0 4.48-3.38 8.76-10.14 12.84-6.762 4.08-12.26 6.12-16.5 6.12-.642 0-1.2-.08-1.68-.24-1.2 2.16-1.8 4.44-1.8 6.84 0 4.16 1.98 6.24 5.94 6.24s9.1-2.68 15.42-8.04c4.878-3.92 9.038-8.08 12.478-12.48.72-.96 1.34-1.44 1.86-1.44s.78.24.78.72-.32 1.16-.96 2.04c-4.32 5.682-9.52 10.72-15.6 15.12-6.08 4.4-11.24 6.6-15.478 6.6zm22.68-34.56c0-.96-1.02-1.44-3.06-1.44s-4.94 1.56-8.7 4.68c-5.04 4.16-8.962 8.52-11.76 13.08.478.162.998.24 1.56.24 3.038 0 7.098-1.62 12.18-4.86 5.08-3.24 8.26-6.78 9.54-10.62.16-.4.24-.76.24-1.08z"/></g></svg>