<?xml version="1.0" encoding="utf-8"?>
<!-- Generator: Adobe Illustrator 16.0.0, SVG Export Plug-In . SVG Version: 6.00 Build 0)  -->
<!DOCTYPE svg PUBLIC "-//W3C//DTD SVG 1.1//EN" "http://www.w3.org/Graphics/SVG/1.1/DTD/svg11.dtd">
<svg version="1.1" id="Layer_1" xmlns="http://www.w3.org/2000/svg" xmlns:xlink="http://www.w3.org/1999/xlink" x="0px" y="0px"
	 width="533px" height="191px" viewBox="0 0 533 191" enable-background="new 0 0 533 191" xml:space="preserve">
<g>
	<g>
		<path fill="#F5F5F5" d="M56.014,70.617l15.6-50.3h10.6l15.6,50.3l17.6-50.3h12.7l-24.4,69.9h-11.7l-14.7-47.9h-0.8l-14.7,47.9
			h-11.7l-24.4-69.9h12.7L56.014,70.617z"/>
		<path fill="#F5F5F5" d="M166.513,90.217h-12v-27.6l-26-42.3h12.9l19.1,31.8l19.1-31.8h12.9l-26,42.3V90.217z"/>
		<path fill="#F5F5F5" d="M253.812,20.317h11.8v69.9h-12.8l-39.6-51v51h-11.8v-69.9h11.8l40.6,52.2V20.317z"/>
		<path fill="#F5F5F5" d="M337.912,29.467c6.733,6.1,10.1,14.584,10.1,25.45c0,10.867-3.268,19.467-9.8,25.8
			c-6.534,6.334-16.534,9.5-30,9.5h-23.2v-69.9h24C321.545,20.317,331.178,23.367,337.912,29.467z M336.112,55.217
			c0-16-9.167-24-27.5-24h-11.8v47.9h13.1c8.465,0,14.95-2.016,19.45-6.05C333.862,69.034,336.112,63.084,336.112,55.217z"/>
	</g>
	<g>
		<path fill="#F5F5F5" d="M220.49,129.523c-4.8,0-8.84-1.099-12.12-3.3c-3.281-2.199-4.92-4.98-4.92-8.34
			c0-4.239,2.76-8.479,8.28-12.72c0.96-0.72,1.68-1.08,2.16-1.08s0.72,0.161,0.72,0.48c0,0.8-0.641,1.44-1.92,1.92
			c-4.481,3.6-6.72,7.241-6.72,10.92c0,2.64,1.2,4.86,3.6,6.66c2.4,1.8,5.4,2.7,9,2.7c7.839,0,15.24-3.759,22.2-11.28
			c3.6-3.919,5.4-8.439,5.4-13.56c0-5.119-1.92-8.919-5.76-11.4c-3.201-2.239-7.521-3.36-12.96-3.36
			c-7.841,0-15.72,1.961-23.64,5.88c-9.762,4.721-18.582,12.06-26.46,22.02c-7.88,9.96-11.82,19.541-11.82,28.74
			c0,7.281,2.479,12.9,7.44,16.86c4.959,3.96,11.119,5.94,18.48,5.94c8.4,0,16.639-2.04,24.72-6.12
			c6.159-3.199,11.479-7.279,15.96-12.24c1.279-1.44,2.28-2.16,3-2.16c0.48,0,0.72,0.42,0.72,1.26s-0.44,1.701-1.32,2.58
			c-4.241,4.481-10.361,8.801-18.36,12.96c-9.84,5.199-19.74,7.8-29.7,7.8s-17.381-3.281-22.26-9.84
			c-3.281-4.32-4.92-9.48-4.92-15.48c0-2.64,0.318-5.479,0.96-8.52c2.16-10.239,7.839-20.199,17.04-29.88
			c6.639-6.96,14.52-12.379,23.64-16.26c9.12-3.879,17.76-5.82,25.92-5.82c4.32,0,8.08,0.521,11.28,1.56
			c8.719,2.721,13.08,8.201,13.08,16.44c0,5.04-1.481,9.401-4.44,13.08C239.409,125.004,230.648,129.523,220.49,129.523z"/>
		<path fill="#F5F5F5" d="M267.169,163.483c-6,0-9-3.319-9-9.96c0-3.36,0.879-7.039,2.64-11.04c1.759-4,3.679-7.359,5.76-10.08
			c-0.401,0.081-0.92,0.12-1.56,0.12c-1.92,0-3.521-1.359-4.8-4.08l-8.88,11.52c-4.961,6.161-7.841,9.24-8.64,9.24
			c-0.399,0-0.6-0.159-0.6-0.48c0-0.799,0.679-1.959,2.04-3.48c6.96-8.079,11.88-14.919,14.76-20.52
			c1.839-6.96,4.159-10.44,6.96-10.44c1.839,0,2.76,0.801,2.76,2.4c0,1.602-1.001,3.642-3,6.12l-2.88,3.84
			c0,1.68,1.239,2.52,3.72,2.52c1.44,0,3.04-0.519,4.8-1.56l3.12-1.92c0.159-0.079,0.559-0.12,1.2-0.12c0.64,0,1.32,0.401,2.04,1.2
			c0.72,0.801,0.96,1.521,0.72,2.16l-8.28,10.44c-5.121,6.561-7.68,11.741-7.68,15.54c0,3.801,1.759,5.7,5.28,5.7
			c3.679,0,8.199-1.959,13.56-5.88c3.199-2.319,6.12-4.92,8.76-7.8c2.479-2.88,3.84-4.32,4.08-4.32c0.559,0,0.84,0.3,0.84,0.9
			s-0.36,1.301-1.08,2.1l-3.84,4.32c-2.16,2.241-4.56,4.4-7.2,6.48C276.449,161.125,271.25,163.483,267.169,163.483z"/>
		<path fill="#F5F5F5" d="M296.089,164.443c-0.881,0-1.68-0.12-2.4-0.36c-5.119-1.44-7.68-4.32-7.68-8.64
			c0-5.599,3.521-12.079,10.56-19.44c7.039-7.359,13.359-11.04,18.96-11.04c1.839,0,3.339,0.5,4.5,1.5
			c1.159,1.001,1.74,2.22,1.74,3.66c0,4.481-3.38,8.76-10.14,12.84c-6.761,4.08-12.261,6.12-16.5,6.12c-0.642,0-1.2-0.079-1.68-0.24
			c-1.2,2.16-1.8,4.44-1.8,6.84c0,4.161,1.98,6.24,5.94,6.24s9.099-2.679,15.42-8.04c4.879-3.919,9.04-8.08,12.48-12.48
			c0.72-0.96,1.339-1.44,1.86-1.44c0.52,0,0.78,0.24,0.78,0.72s-0.321,1.161-0.96,2.04c-4.32,5.682-9.521,10.721-15.6,15.12
			C305.489,162.244,300.329,164.443,296.089,164.443z M318.769,129.883c0-0.96-1.02-1.44-3.06-1.44c-2.04,0-4.941,1.56-8.7,4.68
			c-5.04,4.16-8.96,8.52-11.76,13.08c0.48,0.162,1,0.24,1.56,0.24c3.04,0,7.099-1.62,12.18-4.86c5.08-3.24,8.259-6.78,9.54-10.62
			C318.688,130.564,318.769,130.204,318.769,129.883z"/>
		<path fill="#F5F5F5" d="M360.768,127.003l1.68-0.36c0.879,0,1.719,0.36,2.52,1.08c0.799,0.72,1.2,1.281,1.2,1.68
			c0,0.401-2.48,4.26-7.44,11.58c-4.961,7.32-7.44,12.42-7.44,15.3c0,0.24,0.04,0.48,0.12,0.72c0.399,1.841,1.279,2.76,2.64,2.76
			c4.159,0,11.76-6.879,22.8-20.64c0.24-0.319,0.52-0.48,0.84-0.48c0.319,0,0.48,0.3,0.48,0.9c0,0.6-0.36,1.38-1.08,2.34
			c-10.241,13.68-18.041,20.52-23.4,20.52c-0.72,0-1.4-0.12-2.04-0.36c-3.521-1.359-5.28-4-5.28-7.92c0-1.359,0.159-2.719,0.48-4.08
			l-7.44,7.2c-4.721,4.161-8.141,6.24-10.26,6.24c-2.121,0-4.14-0.679-6.06-2.04c-2.16-1.6-3.24-3.72-3.24-6.36
			c0-5.839,4.08-12.819,12.24-20.94c8.16-8.119,15.64-12.18,22.44-12.18c2.64,0,4.398,0.92,5.28,2.76
			c0.24,0.642,0.439,1.182,0.6,1.62C360.567,126.784,360.688,127.003,360.768,127.003z M324.888,156.523c0,2.88,1,4.32,3,4.32
			c4.639,0,10.959-5.079,18.96-15.24l12.72-17.52c-0.641-1.12-1.68-1.68-3.12-1.68c-4.881,0-11.361,3.78-19.44,11.34
			C328.927,145.303,324.888,151.564,324.888,156.523z"/>
		<path fill="#F5F5F5" d="M401.566,124.243l17.28-0.24c0.24,0.161,0.36,0.281,0.36,0.36c0,0.72-4.98,1.721-14.94,3
			c-9.96,1.281-15.341,2.04-16.14,2.28c-1.521,1.361-4.32,5.421-8.4,12.18c-4.08,6.761-6.12,11.7-6.12,14.82
			c0,2.961,2.04,4.44,6.12,4.44c1.92,0,4.44-0.6,7.56-1.8c3.12-1.2,5.52-2.319,7.2-3.36c4.479-2.799,9.279-6.919,14.4-12.36
			c1.119-1.12,1.878-1.68,2.28-1.68c0.24,0,0.36,0.24,0.36,0.72s-0.6,1.44-1.8,2.88c-4.161,5.121-8.841,9.24-14.04,12.36
			c-6.24,3.84-12.201,5.76-17.88,5.76c-2.48,0-4.5-0.54-6.06-1.62s-2.34-3.259-2.34-6.54c0-3.279,1.44-7.779,4.32-13.5
			c2.88-5.719,5.08-9.979,6.6-12.78c-1.121,0.24-2.082,0.36-2.88,0.36c-2.321,0-3.48-0.919-3.48-2.76c0-1.359,0.96-2.319,2.88-2.88
			c0.24,0,0.6-0.04,1.08-0.12h6.96c1.44-1.839,3.079-3.96,4.92-6.36c2.239-2.88,3.759-4.32,4.56-4.32c0.799,0,1.8,0.32,3,0.96
			c1.2,0.641,1.8,1.4,1.8,2.28c0,0.881-1.92,3.48-5.76,7.8C395.486,124.204,398.207,124.243,401.566,124.243z"/>
		<path fill="#F5F5F5" d="M410.206,164.203c-4.08,0-6.12-2.64-6.12-7.92c0-4.32,2.358-10.299,7.08-17.94
			c4.72-7.639,8.52-11.5,11.4-11.58c0.798,0,1.699,0.321,2.7,0.96c1,0.642,1.5,1.281,1.5,1.92c-0.401,0.561-0.881,1.182-1.44,1.86
			c-0.561,0.681-1.161,1.421-1.8,2.22c-0.642,0.801-1.521,1.941-2.64,3.42c-1.121,1.481-2.201,2.901-3.24,4.26
			c-6,7.761-9,13.101-9,16.02c0,2.921,1,4.38,3,4.38c1.68,0,3.96-0.918,6.84-2.76c6.72-4.159,12.039-8.719,15.959-13.68
			c1.44-1.839,2.419-2.76,2.94-2.76c0.52,0,0.78,0.32,0.78,0.96c0,0.641-0.921,1.92-2.761,3.84c-1.841,1.92-3.299,3.44-4.379,4.56
			c-1.08,1.121-1.821,1.86-2.22,2.22c-0.401,0.36-1.14,1.041-2.22,2.04c-1.08,1.001-1.901,1.701-2.46,2.1
			c-0.561,0.401-1.361,1.001-2.4,1.8c-1.041,0.8-1.961,1.38-2.76,1.74c-0.801,0.36-1.721,0.78-2.76,1.26
			C414.526,163.843,412.525,164.203,410.206,164.203z M435.346,115.063c1.08,0.761,1.62,1.661,1.62,2.7c0,1.041-0.501,1.941-1.5,2.7
			c-1.001,0.761-2.1,1.14-3.3,1.14c-1.2,0-2.3-0.439-3.3-1.32c-1.001-0.879-1.5-1.878-1.5-3c0-2.239,1.519-3.36,4.56-3.36
			C433.126,113.923,434.266,114.304,435.346,115.063z"/>
		<path fill="#F5F5F5" d="M465.646,115.723c2.4,0,4.44,0.801,6.12,2.4c1.681,1.601,2.521,3.84,2.521,6.72
			c0,6.321-5.241,14.241-15.721,23.76c-8.88,8-16.04,12.881-21.479,14.64c-0.881,0-2.04-0.48-3.48-1.44
			c-1.439-0.96-2.16-1.839-2.16-2.64c0-1.758,1.92-7.719,5.76-17.88c3.84-10.159,6.479-15.84,7.92-17.04
			c0.318-0.319,0.84-0.48,1.56-0.48c0.721,0,1.479,0.381,2.28,1.14c0.799,0.761,1.239,1.661,1.32,2.7c0,0.081-1.98,4.721-5.94,13.92
			c-3.96,9.201-5.82,14.681-5.58,16.44c3.439-1.039,9.58-5.239,18.42-12.6c8.839-7.359,13.261-13.959,13.261-19.8
			c0-3.52-1.761-6.079-5.28-7.68c-0.561-0.24-0.84-0.6-0.84-1.08C464.327,116.083,464.765,115.723,465.646,115.723z"/>
		<path fill="#F5F5F5" d="M475.246,164.443c-0.882,0-1.68-0.12-2.4-0.36c-5.118-1.44-7.68-4.32-7.68-8.64
			c0-5.599,3.521-12.079,10.56-19.44c7.039-7.359,13.359-11.04,18.96-11.04c1.84,0,3.34,0.5,4.5,1.5
			c1.159,1.001,1.74,2.22,1.74,3.66c0,4.481-3.381,8.76-10.14,12.84c-6.762,4.08-12.261,6.12-16.5,6.12
			c-0.642,0-1.2-0.079-1.68-0.24c-1.2,2.16-1.801,4.44-1.801,6.84c0,4.161,1.98,6.24,5.94,6.24s9.1-2.679,15.42-8.04
			c4.879-3.919,9.039-8.08,12.479-12.48c0.721-0.96,1.339-1.44,1.86-1.44c0.52,0,0.78,0.24,0.78,0.72s-0.32,1.161-0.96,2.04
			c-4.32,5.682-9.521,10.721-15.601,15.12C484.645,162.244,479.485,164.443,475.246,164.443z M497.925,129.883
			c0-0.96-1.02-1.44-3.06-1.44s-4.94,1.56-8.7,4.68c-5.04,4.16-8.961,8.52-11.76,13.08c0.479,0.162,0.999,0.24,1.56,0.24
			c3.039,0,7.099-1.62,12.18-4.86c5.08-3.24,8.26-6.78,9.54-10.62C497.845,130.564,497.925,130.204,497.925,129.883z"/>
	</g>
</g>
</svg>
